Coordinates
version=1
nRows=11
nColumns=36
inDegrees=yes

Units are S.I. units (second, meters, Newtons, ...)
If the header above contains a line with 'inDegrees', this indicates whether rotational values are in degrees (yes) or radians (no).

endheader
time	pelvis_tilt	pelvis_list	pelvis_rotation	pelvis_tx	pelvis_ty	pelvis_tz	hip_flexion_r	hip_adduction_r	hip_rotation_r	knee_angle_r	knee_angle_r_beta	ankle_angle_r	subtalar_angle_r	mtp_angle_r	hip_flexion_l	hip_adduction_l	hip_rotation_l	knee_angle_l	knee_angle_l_beta	ankle_angle_l	subtalar_angle_l	mtp_angle_l	lumbar_extension	lumbar_bending	lumbar_rotation	arm_flex_r	arm_add_r	arm_rot_r	elbow_flex_r	pro_sup_r	arm_flex_l	arm_add_l	arm_rot_l	elbow_flex_l	pro_sup_l
      1.35000000	    -13.30154689	      0.61138549	     -2.49025695	     -0.53874008	      1.14304407	     -0.60689995	     25.77685726	     -4.41319775	     -5.90615834	     16.70643430	      0.29158228	     -6.38152055	     -4.43969552	     -5.97821662	     28.11253697	     -5.24686772	     -0.91629466	     17.30497060	      0.30202871	     -7.87481006	     -5.74970164	     -5.97821662	    -15.89746472	      0.86492388	      0.39456188	     -5.39219937	    -16.27199177	     -4.29102003	     20.80612702	     96.12911019	     -2.36893223	    -15.57907559	    -11.75580953	     16.09482167	     96.44573035
      1.36000000	    -14.02402717	      0.62380900	     -2.65633028	     -0.52873315	      1.12293207	     -0.60613931	     27.91984446	     -4.61760498	     -6.82298424	     15.86901606	      0.27696658	     -6.68867393	     -2.90871835	     -6.02472297	     29.88764847	     -5.73647647	     -1.32985321	     16.57618520	      0.28930901	     -8.47317795	     -5.27166131	     -6.02472297	    -16.21165332	      0.81435699	      0.32917743	     -7.26652117	    -16.26188725	     -3.93885354	     20.33031810	     95.91680705	     -4.12919086	    -15.58306546	    -11.53343688	     15.93494458	     96.25872928
      1.37000000	    -14.65359112	      0.64556410	     -2.79458276	     -0.51862526	      1.10273508	     -0.60509669	     29.96314407	     -4.82948032	     -7.71606769	     15.31139582	      0.26723427	     -7.06769435	     -1.43767772	     -6.07160609	     31.59838186	     -6.21851247	     -1.81475772	     16.06606778	      0.28040578	     -9.11469637	     -4.88427289	     -6.07160609	    -16.53446242	      0.75619717	      0.17858661	     -9.14285842	    -16.23764169	     -3.40162794	     20.02980354	     95.66181025	     -5.95458505	    -15.54627170	    -11.37563607	     15.81325223	     95.92624613
      1.38000000	    -14.83570043	      0.65488440	     -2.95902436	     -0.50927142	      1.08256244	     -0.60481029	     31.45798967	     -4.99929008	     -8.37125599	     14.89790016	      0.26001741	     -7.91757197	     -0.49449822	     -6.09124626	     32.82272681	     -6.70403625	     -2.35325845	     15.74450028	      0.27479337	     -9.90845000	     -4.54980062	     -6.09124626	    -17.33451193	      0.67627198	      0.05591825	    -10.74178142	    -16.21973559	     -3.11674476	     19.71259564	     95.52827623	     -7.59738723	    -15.48149829	    -11.33107309	     15.47892035	     95.72879525
      1.39000000	    -15.65778589	      0.69748151	     -2.99237056	     -0.49994584	      1.05900901	     -0.60692072	     33.76623111	     -5.31043792	     -9.17056164	     15.11803438	      0.26385948	     -8.06386916	      0.91445342	     -6.14940210	     34.93450767	     -7.08693527	     -2.68472940	     15.98879780	      0.27905717	    -10.34795777	     -4.23176184	     -6.14940210	    -17.14756629	      0.66703194	     -0.34534329	    -12.66923719	    -16.38433222	     -2.18676345	     20.16579623	     95.07411386	     -9.88387613	    -15.36624644	    -11.17069291	     15.89488147	     95.02934656
      1.40000000	    -16.01745958	      0.70524374	     -3.02373822	     -0.48981735	      1.03451715	     -0.61029173	     35.45360301	     -5.59408266	     -9.76261186	     15.42210909	      0.26916658	     -8.48794500	      1.75256359	     -6.52189680	     36.49847332	     -7.43418487	     -2.96455283	     16.36485645	      0.28562063	    -10.85010496	     -4.14993383	     -6.52189680	    -17.47066268	      0.54861416	     -2.42076892	    -12.42293036	    -17.50983190	      5.86870495	     19.06379748	     93.09221555	    -13.93390486	    -15.08410470	    -10.65079960	     18.19455478	     91.00952919
      1.41000000	    -15.72472794	      0.70910019	     -3.15053711	     -0.47933476	      1.01078416	     -0.61236600	     36.32940696	     -5.80586938	     -9.89596265	     15.82045716	      0.27611907	     -8.81919338	      2.00578408	     -6.53975574	     37.24539892	     -7.76655479	     -3.23286040	     16.80350453	      0.29327648	    -11.13884642	     -4.02629775	     -6.53975574	    -18.49172961	      0.48798710	     -2.50687011	    -13.88337239	    -17.56305731	      5.94230535	     19.04832804	     92.76368619	    -15.38156534	    -14.82852674	    -10.60452957	     18.10701054	     90.71375163
      1.42000000	    -16.68754115	      0.75244031	     -3.35657969	     -0.46940170	      0.98462038	     -0.61214632	     38.69333236	     -6.02163458	    -10.31796327	     16.70262767	      0.29151585	     -9.00011248	      3.07956039	     -6.58510664	     39.51634147	     -8.22547453	     -3.75616152	     17.71891488	      0.30925340	    -11.61500019	     -3.86105971	     -6.58510664	    -17.93797819	      0.40271794	     -2.89901682	    -15.63643436	    -18.01108611	      6.54475520	     20.41741618	     92.13297357	    -17.71301567	    -14.53015631	    -10.26710409	     19.06020190	     90.13008048
      1.43000000	    -17.04996087	      0.66417381	     -3.36299929	     -0.45871118	      0.95907185	     -0.61175520	     40.22049657	     -6.20717998	    -10.41153535	     17.65738714	      0.30817954	     -9.00118007	      3.25761816	     -6.67437943	     41.11173305	     -8.55361249	     -3.55337139	     18.70288686	      0.32642696	    -11.86782207	     -4.06940444	     -6.67437943	    -18.26196433	      0.46475846	     -3.63912895	    -17.09958068	    -18.93329471	      9.10423912	     22.31277402	     91.56804941	    -20.55012445	    -14.38918963	     -9.24317338	     21.42167206	     89.30899570
      1.44000000	    -17.24351909	      0.69257470	     -3.51462235	     -0.44681234	      0.93333454	     -0.61193088	     41.49079332	     -6.34460351	    -10.02960333	     18.71872675	      0.32670341	     -8.81327816	      3.53702639	     -6.87611650	     42.38387429	     -8.91524470	     -3.71663646	     19.75385072	      0.34476974	    -11.78883006	     -3.91848957	     -6.87611650	    -18.48088441	      0.17914470	     -4.97988660	    -16.88775992	    -20.17279990	     14.85093828	     22.00268668	     90.75891569	    -23.61677545	    -14.16561443	     -8.71658990	     23.24332567	     87.63177548
      1.45000000	    -17.03808809	      0.62616804	     -3.61353002	     -0.43623152	      0.90755824	     -0.61263166	     42.39678250	     -6.42263911	     -9.41921513	     20.11985014	      0.35115763	     -8.20414461	      3.37220968	     -6.90217093	     43.41005209	     -9.27831418	     -3.61962854	     21.39597101	      0.37343014	    -11.27859736	     -4.01648911	     -6.90217093	    -19.39141515	      0.09281044	     -5.02469182	    -17.95984624	    -20.64157728	     14.81450531	     22.56535316	     90.06734065	    -24.90535870	    -14.26922585	     -8.75139704	     23.59817555	     87.03289846
